<svg data-name="App Icon" id="App_Icon" viewBox="0 0 16 16" xmlns="http://www.w3.org/2000/svg">
	<title>safari-pinned-tab</title>
	<polygon points="1.85 6.15 1.85 6.14 1.85 6.15 1.85 6.16 1.85 6.15"/>
	<path d="M14.12,6.69a.54.54,0,0,1-.52-.54.56.56,0,0,1,.52-.55,6.14,6.14,0,0,0-12.24,0,.56.56,0,0,1,.52.55.54.54,0,0,1-.52.54A6.15,6.15,0,0,0,6.08,12v0a1.44,1.44,0,0,1-1.45,1.45H3.57a1.45,1.45,0,0,0-1.45,1.45v.69a.4.4,0,0,0,.4.4h11a.4.4,0,0,0,.4-.4v-.47h0v-.22a1.45,1.45,0,0,0-1.45-1.45H11.37A1.44,1.44,0,0,1,9.92,12v0A6.15,6.15,0,0,0,14.12,6.69ZM8,10a3.87,3.87,0,1,1,3.87-3.87A3.87,3.87,0,0,1,8,10Z"/>
	<path d="M9.12,6.12a.79.79,0,0,1-.79-.79.75.75,0,0,1,.14-.42A1.24,1.24,0,0,0,8,4.81,1.34,1.34,0,1,0,9.34,6.15a.14.14,0,0,0,0-.07A.65.65,0,0,1,9.12,6.12Z"/>
</svg>